<svg width="23" height="21" viewBox="0 0 23 21" fill="none" xmlns="http://www.w3.org/2000/svg">
<path d="M19.8539 12.5877H8.32254L8.58 13.8465H19.1387C19.7445 13.8465 20.1935 14.4091 20.0593 14.9998L19.8423 15.9548C20.5775 16.3117 21.0845 17.0654 21.0845 17.9375C21.0845 19.1649 20.0806 20.1578 18.8492 20.1401C17.6761 20.1233 16.7112 19.1712 16.6796 17.9984C16.6623 17.3577 16.9189 16.777 17.3406 16.364H9.0937C9.50189 16.7639 9.7555 17.321 9.7555 17.9375C9.7555 19.1889 8.71198 20.1967 7.44762 20.1379C6.32495 20.0858 5.4119 19.1787 5.3529 18.0564C5.30735 17.1896 5.76342 16.4257 6.45633 16.0271L3.69305 2.51755H0.944081C0.422673 2.51755 0 2.09488 0 1.57347V0.944081C0 0.422673 0.422673 0 0.944081 0H4.97723C5.42571 0 5.81227 0.31552 5.90216 0.754871L6.26272 2.51755H21.7135C22.3193 2.51755 22.7683 3.0801 22.6341 3.67086L20.7745 11.8529C20.6768 12.2827 20.2947 12.5877 19.8539 12.5877ZM16.0494 6.60856H14.1612V5.0351C14.1612 4.68748 13.8794 4.40571 13.5318 4.40571H12.9024C12.5548 4.40571 12.273 4.68748 12.273 5.0351V6.60856H10.3849C10.0373 6.60856 9.7555 6.89033 9.7555 7.23795V7.86734C9.7555 8.21496 10.0373 8.49672 10.3849 8.49672H12.273V10.0702C12.273 10.4178 12.5548 10.6996 12.9024 10.6996H13.5318C13.8794 10.6996 14.1612 10.4178 14.1612 10.0702V8.49672H16.0494C16.397 8.49672 16.6788 8.21496 16.6788 7.86734V7.23795C16.6788 6.89033 16.397 6.60856 16.0494 6.60856Z" fill="#567488"/>
</svg>
