<svg width="20" height="21" viewBox="0 0 20 21" fill="none" xmlns="http://www.w3.org/2000/svg">
<path d="M13.1605 20.0405H13.0337C8.70169 20.0405 6.61374 18.333 6.25274 14.5084C6.21371 14.1083 6.50642 13.7473 6.9162 13.7083C7.30647 13.6693 7.67723 13.9717 7.71626 14.3718C7.9992 17.4354 9.44321 18.5769 13.0435 18.5769H13.1703C17.1413 18.5769 18.5463 17.172 18.5463 13.201V6.83951C18.5463 2.8685 17.1413 1.46352 13.1703 1.46352H13.0435C9.42369 1.46352 7.97969 2.62458 7.71626 5.74675C7.66747 6.14678 7.32599 6.44924 6.9162 6.41021C6.50642 6.38094 6.21371 6.01994 6.24298 5.61991C6.57471 1.73671 8.67242 0 13.0337 0H13.1605C17.9511 0 20.0001 2.04893 20.0001 6.83951V13.201C20.0001 17.9915 17.9511 20.0405 13.1605 20.0405Z" fill="#567488"/>
<path d="M12.9248 10.752H1.8216C1.42157 10.752 1.08984 10.4203 1.08984 10.0202C1.08984 9.62021 1.42157 9.28848 1.8216 9.28848H12.9248C13.3248 9.28848 13.6565 9.62021 13.6565 10.0202C13.6565 10.4203 13.3248 10.752 12.9248 10.752Z" fill="#567488"/>
<path d="M3.99784 14.0206C3.81247 14.0206 3.62709 13.9523 3.48073 13.8059L0.21221 10.5374C-0.0707367 10.2545 -0.0707367 9.78615 0.21221 9.50321L3.48073 6.23467C3.76368 5.95172 4.23201 5.95172 4.51495 6.23467C4.7979 6.51762 4.7979 6.98594 4.51495 7.26889L1.76354 10.0203L4.51495 12.7717C4.7979 13.0547 4.7979 13.523 4.51495 13.8059C4.37836 13.9523 4.18322 14.0206 3.99784 14.0206Z" fill="#567488"/>
</svg>
