<svg width="28" height="29" viewBox="0 0 28 29" fill="none" xmlns="http://www.w3.org/2000/svg">
<path d="M25.8218 2.6574L25.8217 2.65743L25.8261 2.66227C26.8672 3.81719 27.5 5.34429 27.5 7C27.5 7.51784 27.4353 8.01697 27.3069 8.49867L27.3044 8.50816L27.3022 8.51774C27.1569 9.16365 26.898 9.79444 26.5596 10.3423L26.5595 10.3422L26.5549 10.3501C25.7755 11.6653 24.5258 12.6864 23.0372 13.1556L23.0278 13.1586L23.0186 13.1619C22.3941 13.3861 21.7167 13.5 21 13.5C19.3269 13.5 17.8186 12.8673 16.6824 11.8285L16.6825 11.8284L16.6725 11.8197C16.1874 11.3993 15.7677 10.8985 15.446 10.3515L15.4461 10.3514L15.4406 10.3426C14.8412 9.37054 14.5 8.21875 14.5 7C14.5 6.28418 14.6137 5.60147 14.8253 4.9501C15.1335 4.00962 15.6526 3.16571 16.3352 2.46687L16.3358 2.46624C17.5222 1.24729 19.1793 0.5 21 0.5C22.9195 0.5 24.6556 1.32928 25.8218 2.6574ZM22.8125 9.6425V8.7775H23.6075C24.623 8.7775 25.42 7.95429 25.42 6.965C25.42 5.97136 24.6011 5.1525 23.6075 5.1525H22.8125V4.41C22.8125 3.41636 21.9936 2.5975 21 2.5975C20.0064 2.5975 19.1875 3.41636 19.1875 4.41V5.1525H18.3925C17.3989 5.1525 16.58 5.97136 16.58 6.965C16.58 7.95864 17.3989 8.7775 18.3925 8.7775H19.1875V9.6425C19.1875 10.6361 20.0064 11.455 21 11.455C21.9936 11.455 22.8125 10.6361 22.8125 9.6425Z" fill="#567488" stroke="#567488"/>
<path d="M12.4037 3.74036C13.753 3.74036 15.0556 3.9629 16.2658 4.38361C16.1271 4.63766 16.0122 4.90308 15.9188 5.17917C14.8137 4.8048 13.6279 4.60091 12.4037 4.60091C6.3102 4.60091 1.36055 9.55056 1.36055 15.644C1.36055 18.6595 2.58282 21.4011 4.55599 23.4002L4.94841 23.7978L5.30023 23.3639C5.64287 22.9413 6.05198 22.5553 6.55141 22.2261L6.5536 22.2247C8.14791 21.1618 10.2693 20.6155 12.413 20.6155C14.5568 20.6155 16.6712 21.1618 18.2523 22.2237L18.2559 22.2261C18.7596 22.5581 19.1777 22.9437 19.5019 23.3574L19.8523 23.8045L20.2513 23.4002C22.2245 21.4011 23.4468 18.6595 23.4468 15.644C23.4468 14.4078 23.2425 13.2193 22.8672 12.1127C23.1401 12.02 23.4061 11.9064 23.6605 11.7716C24.0835 12.9847 24.3073 14.2909 24.3073 15.644C24.3073 19.0938 22.821 22.2 20.4501 24.3803L20.0663 24.7332L20.0675 24.7344C20.0021 24.7841 19.937 24.8415 19.8996 24.8744C19.8876 24.885 19.8785 24.893 19.8731 24.8975C19.6648 25.0711 19.4416 25.2359 19.1994 25.4054L19.1994 25.4054L19.1955 25.4081C19.1444 25.4447 19.1106 25.4701 19.0845 25.4897C19.0461 25.5186 19.0247 25.5347 18.99 25.5545L18.9776 25.5616L18.9656 25.5694C18.8098 25.6707 18.6624 25.7566 18.504 25.849C18.4203 25.8978 18.3335 25.9483 18.2408 26.0039C18.1995 26.0277 18.1564 26.0547 18.1231 26.0756C18.1141 26.0812 18.1057 26.0864 18.0984 26.091C18.0566 26.1169 18.0258 26.135 17.9974 26.1492L17.9973 26.1492L17.989 26.1535C17.7395 26.2842 17.4907 26.4026 17.2426 26.509L17.2291 26.5148L17.2159 26.5213C17.112 26.5733 17.0366 26.6105 16.9663 26.6368L16.9555 26.6409L16.9449 26.6454C16.7873 26.713 16.6328 26.7659 16.4604 26.8249C16.3711 26.8555 16.277 26.8878 16.1751 26.9246C16.0576 26.9558 15.946 26.9977 15.8596 27.0301L15.8558 27.0316C15.6732 27.0947 15.4873 27.1386 15.2763 27.1885C15.1999 27.2066 15.1202 27.2255 15.0362 27.2463C14.9622 27.2579 14.8989 27.2754 14.8601 27.2861L14.8584 27.2866C14.843 27.2908 14.8319 27.2939 14.8224 27.2965C14.8159 27.2982 14.8103 27.2997 14.8046 27.3011C14.7931 27.3039 14.7888 27.3046 14.7888 27.3046L14.7717 27.3071L14.7548 27.3107C14.4298 27.3803 14.1011 27.4276 13.7538 27.4635L13.7185 27.4672L13.684 27.4758L13.654 27.4831C13.6491 27.4843 13.6455 27.4851 13.6428 27.4857H13.6337L13.6112 27.4877C13.2123 27.524 12.8063 27.5477 12.4037 27.5477C12.0138 27.5477 11.6204 27.5254 11.2212 27.491C11.1749 27.4799 11.1025 27.4649 11.0224 27.4615C10.682 27.4259 10.3592 27.3791 10.0401 27.3107L10.0189 27.3061L9.99735 27.3035C9.94172 27.2965 9.89004 27.2826 9.79981 27.2568L9.7918 27.2545L9.78372 27.2525C9.48453 27.1777 9.19623 27.1056 8.90939 27.0219L8.90007 27.0192L8.89065 27.0168C8.8239 27.0001 8.75168 26.9737 8.64726 26.9345L8.63538 26.9301L8.6233 26.9262C8.36354 26.8436 8.10323 26.7489 7.84237 26.6422L7.83554 26.6394L7.82862 26.6368C7.75833 26.6105 7.68295 26.5733 7.57898 26.5213L7.56213 26.5129L7.54469 26.5058C7.2901 26.4016 7.04813 26.2864 6.81855 26.1603C6.78153 26.1391 6.74085 26.1147 6.69475 26.0871L6.69222 26.0856C6.64738 26.0587 6.59712 26.0285 6.54913 26.0011L6.54118 25.9965L6.53306 25.9923C6.2909 25.8654 6.06101 25.7276 5.84316 25.5787C5.79798 25.5465 5.75618 25.5176 5.71741 25.4907C5.67777 25.4633 5.6412 25.438 5.6023 25.4102C5.54396 25.3673 5.48689 25.3257 5.43103 25.285C5.24928 25.1527 5.08031 25.0296 4.92185 24.8975L4.90133 24.8804L4.8791 24.8656C4.8542 24.849 4.84255 24.8385 4.81836 24.8168C4.79835 24.7988 4.76975 24.773 4.71796 24.7297C4.6551 24.6737 4.58728 24.62 4.53281 24.577C4.52359 24.5697 4.51475 24.5627 4.50638 24.556V24.5296L4.34575 24.3811C1.98645 22.2005 0.5 19.094 0.5 15.644C0.5 9.08574 5.84538 3.74036 12.4037 3.74036Z" fill="#567488" stroke="#567488"/>
<path d="M8.25226 14.0064C8.25226 11.7149 10.1122 9.85498 12.4036 9.85498C14.6946 9.85498 16.5543 11.7142 16.555 14.0051C16.5433 16.2523 14.7877 18.0636 12.556 18.1453H12.5401H12.4532H12.3489C10.0012 18.0751 8.25226 16.247 8.25226 14.0064Z" fill="#567488" stroke="#567488"/>
</svg>
