<svg width="28" height="31" viewBox="0 0 28 31" fill="none" xmlns="http://www.w3.org/2000/svg">
<path d="M7.66665 4.29163H4.74998C3.97643 4.29163 3.23457 4.59892 2.68758 5.1459C2.1406 5.69288 1.83331 6.43474 1.83331 7.20829V24.7083C1.83331 25.4818 2.1406 26.2237 2.68758 26.7707C3.23457 27.3177 3.97643 27.625 4.74998 27.625H13.0581" stroke="#567488" stroke-width="2" stroke-linecap="round" stroke-linejoin="round"/>
<path d="M22.25 14.5V7.20829C22.25 6.43474 21.9427 5.69288 21.3957 5.1459C20.8488 4.59892 20.1069 4.29163 19.3334 4.29163H16.4167" stroke="#567488" stroke-width="2" stroke-linecap="round" stroke-linejoin="round"/>
<path d="M13.5 1.375H10.5834C8.97252 1.375 7.66669 2.68084 7.66669 4.29167C7.66669 5.9025 8.97252 7.20833 10.5834 7.20833H13.5C15.1109 7.20833 16.4167 5.9025 16.4167 4.29167C16.4167 2.68084 15.1109 1.375 13.5 1.375Z" stroke="#567488" stroke-width="2" stroke-linecap="round" stroke-linejoin="round"/>
<path d="M7.66669 13.0416H13.5" stroke="#567488" stroke-width="2" stroke-linecap="round" stroke-linejoin="round"/>
<path d="M7.66669 18.875H12.0417" stroke="#567488" stroke-width="2" stroke-linecap="round" stroke-linejoin="round"/>
<path d="M20.0625 26.1667C22.0761 26.1667 23.7084 24.5344 23.7084 22.5208C23.7084 20.5073 22.0761 18.875 20.0625 18.875C18.049 18.875 16.4167 20.5073 16.4167 22.5208C16.4167 24.5344 18.049 26.1667 20.0625 26.1667Z" stroke="#567488" stroke-width="2" stroke-linecap="round" stroke-linejoin="round"/>
<path d="M22.9792 25.4375L26.625 29.0833" stroke="#567488" stroke-width="2" stroke-linecap="round" stroke-linejoin="round"/>
</svg>
