<svg width="164" height="30" viewBox="0 0 164 30" fill="none" xmlns="http://www.w3.org/2000/svg">
<circle cx="3.5" cy="26.5" r="2.5" stroke="#FF9291" stroke-width="2"/>
<circle cx="24.5" cy="5.5" r="3.5" stroke="#FF9291" stroke-width="2"/>
<path d="M29 21V29H21C16.5817 29 13 25.4183 13 21C13 16.5817 16.5817 13 21 13C25.4183 13 29 16.5817 29 21Z" stroke="#FF9291" stroke-width="2"/>
<path d="M1 1H9C13.4183 1 17 4.58172 17 9C17 13.4183 13.4183 17 9 17C4.58172 17 1 13.4183 1 9V1Z" stroke="#FF9291" stroke-width="2"/>
<path d="M72.088 3.8L63.556 29H61.612L53.8 6.392L45.952 29H44.008L35.44 3.8H37.384L45.052 26.48L52.936 3.8H54.7L62.548 26.516L70.288 3.8H72.088ZM76.5582 10.208H78.3582V29H76.5582V10.208ZM77.4582 5.636C77.0502 5.636 76.7022 5.504 76.4142 5.24C76.1262 4.952 75.9822 4.604 75.9822 4.196C75.9822 3.788 76.1262 3.44 76.4142 3.152C76.7022 2.864 77.0502 2.72 77.4582 2.72C77.8662 2.72 78.2142 2.864 78.5022 3.152C78.7902 3.416 78.9342 3.752 78.9342 4.16C78.9342 4.568 78.7902 4.916 78.5022 5.204C78.2142 5.492 77.8662 5.636 77.4582 5.636ZM93.2889 29.144C91.5129 29.144 89.9049 28.736 88.4649 27.92C87.0489 27.104 85.9329 25.976 85.1169 24.536C84.3009 23.072 83.8929 21.428 83.8929 19.604C83.8929 17.78 84.3009 16.148 85.1169 14.708C85.9329 13.244 87.0489 12.104 88.4649 11.288C89.9049 10.472 91.5129 10.064 93.2889 10.064C95.0649 10.064 96.6609 10.472 98.0769 11.288C99.5169 12.104 100.645 13.244 101.461 14.708C102.277 16.148 102.685 17.78 102.685 19.604C102.685 21.428 102.277 23.072 101.461 24.536C100.645 25.976 99.5169 27.104 98.0769 27.92C96.6609 28.736 95.0649 29.144 93.2889 29.144ZM93.2889 27.524C94.7289 27.524 96.0129 27.188 97.1409 26.516C98.2929 25.844 99.1929 24.908 99.8409 23.708C100.513 22.508 100.849 21.14 100.849 19.604C100.849 18.068 100.513 16.7 99.8409 15.5C99.1929 14.3 98.2929 13.364 97.1409 12.692C96.0129 12.02 94.7289 11.684 93.2889 11.684C91.8489 11.684 90.5529 12.02 89.4009 12.692C88.2729 13.364 87.3729 14.3 86.7009 15.5C86.0529 16.7 85.7289 18.068 85.7289 19.604C85.7289 21.14 86.0529 22.508 86.7009 23.708C87.3729 24.908 88.2729 25.844 89.4009 26.516C90.5529 27.188 91.8489 27.524 93.2889 27.524ZM113.021 29.144C111.509 29.144 110.069 28.916 108.701 28.46C107.333 28.004 106.265 27.428 105.497 26.732L106.325 25.292C107.093 25.94 108.077 26.48 109.277 26.912C110.501 27.344 111.773 27.56 113.093 27.56C114.989 27.56 116.381 27.248 117.269 26.624C118.181 26 118.637 25.136 118.637 24.032C118.637 23.24 118.385 22.616 117.881 22.16C117.401 21.704 116.801 21.368 116.081 21.152C115.361 20.936 114.365 20.708 113.093 20.468C111.605 20.204 110.405 19.916 109.493 19.604C108.581 19.292 107.801 18.788 107.153 18.092C106.505 17.396 106.181 16.436 106.181 15.212C106.181 13.724 106.793 12.5 108.017 11.54C109.265 10.556 111.029 10.064 113.309 10.064C114.509 10.064 115.697 10.232 116.873 10.568C118.049 10.904 119.009 11.348 119.753 11.9L118.925 13.34C118.157 12.788 117.281 12.368 116.297 12.08C115.313 11.792 114.305 11.648 113.273 11.648C111.521 11.648 110.201 11.972 109.313 12.62C108.425 13.268 107.981 14.12 107.981 15.176C107.981 16.016 108.233 16.676 108.737 17.156C109.241 17.612 109.853 17.96 110.573 18.2C111.317 18.416 112.349 18.656 113.669 18.92C115.133 19.184 116.309 19.472 117.197 19.784C118.109 20.072 118.877 20.552 119.501 21.224C120.125 21.896 120.437 22.82 120.437 23.996C120.437 25.556 119.789 26.804 118.493 27.74C117.197 28.676 115.373 29.144 113.021 29.144ZM134.641 10.064C136.993 10.064 138.853 10.748 140.221 12.116C141.589 13.484 142.273 15.452 142.273 18.02V29H140.473V18.164C140.473 16.052 139.933 14.444 138.853 13.34C137.797 12.236 136.309 11.684 134.389 11.684C132.181 11.684 130.441 12.344 129.169 13.664C127.897 14.984 127.261 16.76 127.261 18.992V29H125.461V10.208H127.189V14.276C127.837 12.956 128.797 11.924 130.069 11.18C131.365 10.436 132.889 10.064 134.641 10.064ZM156.019 10.064C158.347 10.064 160.135 10.664 161.383 11.864C162.631 13.04 163.255 14.78 163.255 17.084V29H161.527V25.652C160.927 26.756 160.051 27.62 158.899 28.244C157.747 28.844 156.367 29.144 154.759 29.144C152.671 29.144 151.015 28.652 149.791 27.668C148.591 26.684 147.991 25.388 147.991 23.78C147.991 22.22 148.543 20.96 149.647 20C150.775 19.016 152.563 18.524 155.011 18.524H161.455V17.012C161.455 15.26 160.975 13.928 160.015 13.016C159.079 12.104 157.699 11.648 155.875 11.648C154.627 11.648 153.427 11.864 152.275 12.296C151.147 12.728 150.187 13.304 149.395 14.024L148.495 12.728C149.431 11.888 150.559 11.24 151.879 10.784C153.199 10.304 154.579 10.064 156.019 10.064ZM155.011 27.668C156.571 27.668 157.891 27.308 158.971 26.588C160.075 25.868 160.903 24.824 161.455 23.456V19.928H155.047C153.199 19.928 151.855 20.264 151.015 20.936C150.199 21.608 149.791 22.532 149.791 23.708C149.791 24.932 150.247 25.904 151.159 26.624C152.071 27.32 153.355 27.668 155.011 27.668Z" fill="#221F1F"/>
</svg>
