<svg width="26" height="26" viewBox="0 0 26 26" fill="none" xmlns="http://www.w3.org/2000/svg">
<path d="M24.7 0H5.2C3.7648 0 2.6 1.1648 2.6 2.6V6.5H0V9.1H2.6V11.7H0V14.3H2.6V16.9H0V19.5H2.6V23.4C2.6 24.8352 3.7648 26 5.2 26H24.7C25.4189 26 26 25.4189 26 24.7V1.3C26 0.5811 25.4189 0 24.7 0ZM14.3 3.8987C16.4424 3.8987 18.2 5.655 18.2 7.7987C18.2 9.9411 16.4424 11.7 14.3 11.7C12.1589 11.7 10.4 9.9411 10.4 7.7987C10.4 5.655 12.1589 3.8987 14.3 3.8987ZM22.1 20.8H6.5V19.825C6.5 16.9403 10.0165 13.975 14.3 13.975C18.5835 13.975 22.1 16.9403 22.1 19.825V20.8Z" fill="#567488"/>
</svg>
