<svg width="23" height="29" viewBox="0 0 23 29" fill="none" xmlns="http://www.w3.org/2000/svg">
<path d="M5.6875 16.4375H13.4375V18.375H5.6875V16.4375Z" fill="#567488"/>
<path d="M5.6875 11.5938H17.3125V13.5312H5.6875V11.5938Z" fill="#567488"/>
<path d="M5.6875 21.2812H10.5312V23.2188H5.6875V21.2812Z" fill="#567488"/>
<path d="M20.2187 3.84375H17.3125V2.875C17.3125 2.36114 17.1084 1.86833 16.745 1.50498C16.3817 1.14163 15.8889 0.9375 15.375 0.9375H7.625C7.11114 0.9375 6.61833 1.14163 6.25498 1.50498C5.89163 1.86833 5.6875 2.36114 5.6875 2.875V3.84375H2.78125C2.26739 3.84375 1.77458 4.04788 1.41123 4.41123C1.04788 4.77458 0.84375 5.26739 0.84375 5.78125V26.125C0.84375 26.6389 1.04788 27.1317 1.41123 27.495C1.77458 27.8584 2.26739 28.0625 2.78125 28.0625H20.2187C20.7326 28.0625 21.2254 27.8584 21.5888 27.495C21.9521 27.1317 22.1562 26.6389 22.1562 26.125V5.78125C22.1562 5.26739 21.9521 4.77458 21.5888 4.41123C21.2254 4.04788 20.7326 3.84375 20.2187 3.84375ZM7.625 2.875H15.375V6.75H7.625V2.875ZM20.2187 26.125H2.78125V5.78125H5.6875V8.6875H17.3125V5.78125H20.2187V26.125Z" fill="#567488"/>
</svg>
