<svg width="23" height="25" viewBox="0 0 23 25" fill="none" xmlns="http://www.w3.org/2000/svg">
<path d="M10.7037 12.2963C13.823 12.2963 16.3518 9.76757 16.3518 6.64817C16.3518 3.52878 13.823 1 10.7037 1C7.58426 1 5.05548 3.52878 5.05548 6.64817C5.05548 9.76757 7.58426 12.2963 10.7037 12.2963Z" stroke="#567488" stroke-width="2" stroke-linecap="round" stroke-linejoin="round"/>
<path d="M1 23.5927C1 19.221 5.34912 15.6852 10.7035 15.6852" stroke="#567488" stroke-width="2" stroke-linecap="round" stroke-linejoin="round"/>
<path d="M17.7074 22.9149C19.7038 22.9149 21.3222 21.2965 21.3222 19.3001C21.3222 17.3037 19.7038 15.6852 17.7074 15.6852C15.711 15.6852 14.0926 17.3037 14.0926 19.3001C14.0926 21.2965 15.711 22.9149 17.7074 22.9149Z" stroke="#567488" stroke-width="2" stroke-linecap="round" stroke-linejoin="round"/>
<path d="M21.9999 23.5927L20.8703 22.4631" stroke="#567488" stroke-width="2" stroke-linecap="round" stroke-linejoin="round"/>
</svg>
