<svg width="7" height="30" viewBox="0 0 7 30" fill="none" xmlns="http://www.w3.org/2000/svg">
<path d="M3.48491 0C5.40959 0 6.96983 1.56024 6.96983 3.48491C6.96983 5.40959 5.40959 6.96983 3.48491 6.96983C1.56024 6.96983 0 5.40959 0 3.48491C0.00224536 1.56116 1.5611 0.00221657 3.48468 0H3.48491ZM3.48491 5.00462C4.32425 5.00462 5.00465 4.32422 5.00465 3.48488C5.00465 2.64555 4.32425 1.96518 3.48491 1.96518C2.64558 1.96518 1.96518 2.64555 1.96518 3.48488C1.96593 4.3239 2.6459 5.00387 3.48483 5.00462H3.48491ZM3.48491 11.2539C5.40959 11.2539 6.96983 12.8141 6.96983 14.7388C6.96983 16.6634 5.40959 18.2237 3.48491 18.2237C1.56024 18.2237 0 16.6634 0 14.7388C0.00224536 12.815 1.5611 11.2561 3.48468 11.2539H3.48491ZM3.48491 16.2585C4.32425 16.2585 5.00465 15.5781 5.00465 14.7388C5.00465 13.8994 4.32425 13.219 3.48491 13.219C2.64558 13.219 1.96518 13.8994 1.96518 14.7388C1.96593 15.5778 2.6459 16.2578 3.48483 16.2585H3.48491ZM3.48491 22.5077C5.40959 22.5077 6.96983 24.068 6.96983 25.9927C6.96983 27.9173 5.40959 29.4776 3.48491 29.4776C1.56024 29.4776 0 27.9173 0 25.9927C0.00224536 24.0689 1.5611 22.51 3.48468 22.5077H3.48491ZM3.48491 27.5124C4.32425 27.5124 5.00465 26.832 5.00465 25.9926C5.00465 25.1533 4.32425 24.4729 3.48491 24.4729C2.64558 24.4729 1.96518 25.1533 1.96518 25.9926C1.96593 26.8316 2.6459 27.5116 3.48483 27.5124H3.48491Z" fill="#567488"/>
</svg>
