<svg width="14" height="14" viewBox="0 0 14 14" fill="none" xmlns="http://www.w3.org/2000/svg">
<path d="M6.77011 13.5402C10.5101 13.5402 13.5402 10.5101 13.5402 6.77011C13.5402 3.03017 10.5101 3.8147e-06 6.77011 3.8147e-06C3.03017 3.8147e-06 3.8147e-06 3.03017 3.8147e-06 6.77011C3.8147e-06 10.5101 3.03017 13.5402 6.77011 13.5402ZM2.83908 6.00575C2.83908 5.82557 2.9865 5.67816 3.16667 5.67816H5.67816V3.16667C5.67816 2.9865 5.82557 2.83908 6.00575 2.83908H7.53448C7.71465 2.83908 7.86207 2.9865 7.86207 3.16667V5.67816H10.3736C10.5537 5.67816 10.7011 5.82557 10.7011 6.00575V7.53448C10.7011 7.71465 10.5537 7.86207 10.3736 7.86207H7.86207V10.3736C7.86207 10.5537 7.71465 10.7011 7.53448 10.7011H6.00575C5.82557 10.7011 5.67816 10.5537 5.67816 10.3736V7.86207H3.16667C2.9865 7.86207 2.83908 7.71465 2.83908 7.53448V6.00575Z" fill="#FF9291"/>
</svg>
