<svg width="21" height="22" viewBox="0 0 21 22" fill="none" xmlns="http://www.w3.org/2000/svg">
<path d="M14.9804 0.256805H6.28313C2.50532 0.256805 0.253174 2.50896 0.253174 6.28676V14.9736C0.253174 18.7618 2.50532 21.014 6.28313 21.014H14.97C18.7478 21.014 20.9999 18.7618 20.9999 14.984V6.28676C21.0103 2.50896 18.7582 0.256805 14.9804 0.256805ZM16.8589 11.4138H11.4101V16.8625C11.4101 17.2881 11.0573 17.6409 10.6318 17.6409C10.2062 17.6409 9.85336 17.2881 9.85336 16.8625V11.4138H4.4046C3.97908 11.4138 3.62621 11.0609 3.62621 10.6354C3.62621 10.2099 3.97908 9.85699 4.4046 9.85699H9.85336V4.40824C9.85336 3.98271 10.2062 3.62984 10.6318 3.62984C11.0573 3.62984 11.4101 3.98271 11.4101 4.40824V9.85699H16.8589C17.2844 9.85699 17.6373 10.2099 17.6373 10.6354C17.6373 11.0609 17.2844 11.4138 16.8589 11.4138Z" fill="#FF9291"/>
</svg>
