<svg width="30" height="30" viewBox="0 0 30 30" fill="none" xmlns="http://www.w3.org/2000/svg">
<path d="M12.1627 12.2123H9.45987L9.45984 20.3207H17.5683V17.6179L14.0739 17.6177L21.2763 10.4154L19.3651 8.50425L12.1627 15.7066V12.2123Z" fill="#567488"/>
<path fill-rule="evenodd" clip-rule="evenodd" d="M29.7309 14.8655C29.7309 23.0754 23.0754 29.7309 14.8655 29.7309C6.6555 29.7309 0 23.0754 0 14.8655C0 6.6555 6.6555 0 14.8655 0C23.0754 0 29.7309 6.6555 29.7309 14.8655ZM27.0281 14.8655C27.0281 21.5828 21.5828 27.0281 14.8655 27.0281C8.14822 27.0281 2.70281 21.5828 2.70281 14.8655C2.70281 8.14822 8.14822 2.70281 14.8655 2.70281C21.5828 2.70281 27.0281 8.14822 27.0281 14.8655Z" fill="#567488"/>
</svg>
