<svg width="26" height="26" viewBox="0 0 26 26" fill="none" xmlns="http://www.w3.org/2000/svg">
<path d="M3.3584 14.6792C3.3584 16.5984 3.9275 18.4745 4.99374 20.0702C6.05998 21.6659 7.57546 22.9097 9.34855 23.6441C11.1216 24.3785 13.0727 24.5707 14.955 24.1963C16.8373 23.8219 18.5663 22.8977 19.9234 21.5406C21.2804 20.1836 22.2046 18.4546 22.579 16.5723C22.9534 14.69 22.7613 12.7389 22.0268 10.9658C21.2924 9.19273 20.0487 7.67725 18.4529 6.61101C16.8572 5.54477 14.9811 4.97567 13.0619 4.97567H9.82742V0.932526L4.97565 5.7843L9.82742 10.6361V6.59292H13.0619C14.6613 6.59292 16.2247 7.06718 17.5544 7.95571C18.8842 8.84424 19.9207 10.1071 20.5327 11.5847C21.1447 13.0623 21.3049 14.6882 20.9928 16.2568C20.6808 17.8253 19.9107 19.2662 18.7798 20.3971C17.6489 21.528 16.2081 22.2981 14.6395 22.6101C13.0709 22.9221 11.445 22.762 9.96745 22.15C8.48988 21.5379 7.22697 20.5015 6.33844 19.1717C5.44991 17.8419 4.97565 16.2785 4.97565 14.6792H3.3584Z" fill="#98EE2A"/>
</svg>
