<svg width="13" height="12" viewBox="0 0 13 12" fill="none" xmlns="http://www.w3.org/2000/svg">
<path d="M1 9.97188V2.12149C1 1.50211 1.54721 1 2.22222 1H9.04931C9.37344 1 9.68432 1.11815 9.91354 1.32848L11.642 2.91449C11.8712 3.12482 12 3.41007 12 3.70751V9.97188C12 10.5913 11.4528 11.0934 10.7778 11.0934H2.22222C1.54721 11.0934 1 10.5913 1 9.97188Z" stroke="#FF9291"/>
<path d="M4.42233 4.36446H8.57789C8.78041 4.36446 8.94455 4.21382 8.94455 4.02801V1.33645C8.94455 1.15063 8.78041 1 8.57789 1H4.42233C4.21983 1 4.05566 1.15063 4.05566 1.33645V4.02801C4.05566 4.21382 4.21983 4.36446 4.42233 4.36446Z" stroke="#FF9291"/>
<path d="M2.83325 6.94387V11.0934H10.1666V6.94387C10.1666 6.75804 10.0024 6.60742 9.79992 6.60742H3.19992C2.99741 6.60742 2.83325 6.75804 2.83325 6.94387Z" stroke="#FF9291"/>
</svg>
