<svg width="8" height="12" viewBox="0 0 8 12" fill="none" xmlns="http://www.w3.org/2000/svg">
<path d="M2.02836 0.215057H3.11802V3.01716C4.21807 2.61944 5.32806 2.20139 6.43579 1.80005V2.70079C5.3267 3.09851 4.2262 3.50301 3.11802 3.90072V4.36488C4.22575 3.96355 5.33574 3.54549 6.43579 3.14777V4.04173C5.3362 4.45075 4.22394 4.84621 3.11802 5.24845V9.89315C4.66369 9.69023 5.93594 8.69006 6.52121 7.32562L6.53206 7.29759C6.74493 6.80632 6.86922 6.2346 6.86922 5.63351C6.86922 5.63215 6.86922 5.63125 6.86922 5.62989H8V5.80163C7.97379 6.62645 7.7686 7.39702 7.42195 8.0849L7.43642 8.05371C7.11915 8.67695 6.71284 9.20754 6.22699 9.65181L6.22293 9.65543C5.27111 10.5291 3.99661 11.0642 2.59692 11.0642C2.3967 11.0642 2.1992 11.0533 2.00441 11.0321L2.02836 11.0343V5.64707C1.34772 5.8866 0.677024 6.13653 0 6.37923V5.51148C0.67838 5.26381 1.35857 5.0184 2.02836 4.76214V4.30161C1.3536 4.5321 0.677024 4.79062 0 5.0306V4.16738C0.67386 3.91428 1.35992 3.67294 2.02836 3.41442V0.215057Z" fill="#FF9291"/>
</svg>
