<svg width="23" height="26" viewBox="0 0 23 26" fill="none" xmlns="http://www.w3.org/2000/svg">
<path d="M15.6818 4.18182H21.9545C22.5318 4.18182 23 4.64989 23 5.22727C23 5.80466 22.5318 6.27273 21.9545 6.27273H20.7993L19.2251 20.4409C18.9309 23.0882 16.6934 25.0909 14.0298 25.0909H8.97017C6.30662 25.0909 4.06901 23.0882 3.77486 20.4409L2.20062 6.27273H1.04545C0.468071 6.27273 0 5.80466 0 5.22727C0 4.64989 0.468071 4.18182 1.04545 4.18182H7.31818C7.31818 1.87226 9.19044 0 11.5 0C13.8096 0 15.6818 1.87226 15.6818 4.18182ZM11.5 2.09091C10.3452 2.09091 9.40909 3.02705 9.40909 4.18182H13.5909C13.5909 3.02705 12.6548 2.09091 11.5 2.09091ZM8.36364 10.4545V18.8182C8.36364 19.3955 8.83171 19.8636 9.40909 19.8636C9.98647 19.8636 10.4545 19.3955 10.4545 18.8182V10.4545C10.4545 9.87716 9.98647 9.40909 9.40909 9.40909C8.83171 9.40909 8.36364 9.87716 8.36364 10.4545ZM13.5909 9.40909C13.0135 9.40909 12.5455 9.87716 12.5455 10.4545V18.8182C12.5455 19.3955 13.0135 19.8636 13.5909 19.8636C14.1683 19.8636 14.6364 19.3955 14.6364 18.8182V10.4545C14.6364 9.87716 14.1683 9.40909 13.5909 9.40909Z" fill="#8B8B8B"/>
</svg>
