<svg width="19" height="19" viewBox="0 0 19 19" fill="none" xmlns="http://www.w3.org/2000/svg">
<path d="M9.5 0C4.25202 0 0 4.25202 0 9.5C0 14.748 4.25202 19 9.5 19C14.748 19 19 14.748 19 9.5C19 4.25202 14.748 0 9.5 0ZM9.5 3.67742C11.3617 3.67742 12.871 5.18669 12.871 7.04839C12.871 8.91008 11.3617 10.4194 9.5 10.4194C7.63831 10.4194 6.12903 8.91008 6.12903 7.04839C6.12903 5.18669 7.63831 3.67742 9.5 3.67742ZM9.5 16.8548C7.25141 16.8548 5.23649 15.8359 3.8881 14.2423C4.60827 12.8863 6.01794 11.9516 7.66129 11.9516C7.75323 11.9516 7.84516 11.9669 7.93327 11.9938C8.43125 12.1546 8.95222 12.2581 9.5 12.2581C10.0478 12.2581 10.5726 12.1546 11.0667 11.9938C11.1548 11.9669 11.2468 11.9516 11.3387 11.9516C12.9821 11.9516 14.3917 12.8863 15.1119 14.2423C13.7635 15.8359 11.7486 16.8548 9.5 16.8548Z" fill="#FF9291"/>
</svg>
